<?xml version="1.0" standalone="no"?>
<!DOCTYPE svg PUBLIC "-//W3C//DTD SVG 20010904//EN"
 "http://www.w3.org/TR/2001/REC-SVG-20010904/DTD/svg10.dtd">
<svg version="1.0" xmlns="http://www.w3.org/2000/svg"
 width="1024.000000pt" height="1024.000000pt" viewBox="0 0 1024.000000 1024.000000"
 preserveAspectRatio="xMidYMid meet">

<g transform="translate(0.000000,1024.000000) scale(0.100000,-0.100000)"
fill="#000000" stroke="none">
<path d="M0 5120 l0 -5120 5120 0 5120 0 0 5120 0 5120 -5120 0 -5120 0 0
-5120z m2400 4022 c181 -202 490 -501 608 -590 103 -76 69 -81 347 50 323 152
371 174 685 312 168 74 346 153 395 177 234 109 488 224 597 269 l67 28 143
-67 c79 -38 197 -94 263 -126 66 -31 183 -85 260 -120 77 -34 169 -76 205 -93
36 -17 160 -73 275 -125 247 -111 288 -130 544 -249 107 -50 211 -93 231 -95
34 -5 46 1 130 63 144 108 215 167 314 262 134 127 463 480 494 529 15 23 30
42 33 43 9 0 18 -181 25 -520 10 -466 -16 -953 -65 -1237 -10 -59 -17 -110
-14 -113 2 -2 12 0 21 6 32 20 213 249 313 399 56 83 128 186 159 230 32 44
67 99 79 123 12 23 25 42 30 42 22 0 38 -398 30 -765 -6 -246 -10 -296 -33
-414 -33 -169 -36 -181 -106 -391 -63 -188 -155 -417 -194 -484 -28 -48 -126
-242 -126 -250 0 -3 37 21 83 54 115 83 329 275 377 339 48 64 47 73 24 -173
-24 -269 -80 -467 -203 -721 -87 -179 -161 -302 -265 -434 -101 -128 -324
-347 -465 -456 -191 -148 -204 -159 -243 -224 -21 -34 -38 -67 -38 -72 0 -30
44 -33 850 -60 195 -6 357 -13 359 -15 2 -2 -4 -11 -14 -20 -74 -75 -374 -490
-462 -639 -52 -89 -143 -271 -143 -286 0 -6 -12 -25 -26 -43 -30 -35 -128
-229 -145 -287 -11 -34 -9 -43 18 -96 17 -32 34 -69 38 -83 4 -14 33 -72 64
-130 93 -174 227 -483 321 -740 121 -331 200 -552 210 -590 6 -25 25 -85 40
-135 36 -112 50 -173 43 -191 -7 -20 -33 -17 -33 4 0 14 -2 15 -10 2 -7 -12
-10 -11 -16 5 -4 11 -20 54 -36 95 -34 86 -126 338 -189 515 -131 371 -247
654 -360 876 -56 112 -127 252 -157 312 l-54 107 22 48 c13 26 35 76 50 112
27 63 184 395 216 455 155 292 215 384 330 505 46 49 84 96 84 104 0 9 -13 17
-32 20 -18 3 -259 7 -535 8 l-503 3 0 111 c0 61 3 139 6 172 7 61 7 62 58 93
191 118 313 216 501 404 149 149 217 236 305 389 148 258 284 606 297 759 l6
70 -60 -49 c-174 -143 -569 -418 -618 -430 -38 -9 -34 0 58 133 243 352 454
831 546 1238 43 190 50 259 60 586 8 267 7 349 -5 349 -15 0 -76 -69 -130
-148 -36 -50 -89 -120 -118 -155 -29 -34 -85 -104 -124 -155 -40 -52 -98 -115
-129 -140 -32 -26 -63 -53 -69 -61 -6 -8 -14 -67 -17 -130 -11 -209 -132 -612
-259 -866 -67 -132 -230 -395 -280 -449 -16 -17 -18 -18 -18 -3 0 38 62 207
101 272 127 216 212 434 296 765 30 118 63 278 73 355 11 77 33 228 49 335 16
107 36 296 45 420 19 282 32 1035 18 1044 -5 3 -68 -55 -138 -131 -131 -138
-239 -240 -466 -438 -69 -60 -123 -113 -119 -117 8 -9 148 -70 331 -145 133
-54 240 -78 240 -55 0 7 -27 25 -60 42 -33 17 -60 33 -60 36 0 10 123 134 133
134 13 0 2 -434 -13 -540 -6 -41 -20 -118 -30 -170 -11 -52 -28 -158 -39 -235
-11 -77 -25 -156 -31 -175 -5 -19 -19 -89 -30 -155 -22 -134 -50 -252 -73
-305 -14 -32 -15 -33 -16 -10 -1 14 8 86 19 160 10 74 24 196 30 271 13 156
27 645 22 767 -3 77 -5 84 -28 92 -47 18 -352 154 -529 235 -176 81 -299 138
-547 251 -68 30 -170 77 -228 104 -238 110 -459 210 -464 210 -5 0 -298 138
-564 266 -73 35 -138 64 -143 64 -6 0 -29 -9 -52 -19 -23 -11 -98 -44 -167
-74 -69 -30 -177 -80 -240 -110 -63 -30 -254 -117 -425 -192 -353 -157 -685
-307 -860 -390 -66 -31 -149 -71 -185 -87 -36 -17 -161 -77 -278 -134 -117
-57 -229 -109 -249 -116 -21 -8 -39 -23 -45 -38 -19 -47 6 -1123 28 -1232 3
-16 2 -28 -3 -28 -5 0 -17 33 -26 73 -45 200 -78 357 -107 507 -17 91 -35 184
-41 207 -22 99 -58 579 -59 799 0 6 37 -25 82 -69 l82 -80 -22 -18 c-12 -9
-28 -20 -35 -22 -9 -4 -8 -8 3 -16 21 -15 63 -4 150 39 101 50 305 140 319
140 33 0 -3 43 -96 116 -102 80 -456 430 -527 522 -27 34 -52 62 -56 62 -39 0
-35 -754 5 -1188 36 -388 138 -948 216 -1192 17 -52 44 -138 61 -190 16 -52
64 -165 105 -250 79 -163 156 -351 168 -410 l7 -35 -21 20 c-23 23 -251 421
-291 510 -68 149 -183 509 -211 659 -5 31 -16 108 -23 171 l-14 116 -67 61
c-37 34 -86 87 -108 117 -22 31 -64 81 -92 111 -59 62 -177 213 -221 280 -49
76 -107 151 -112 145 -12 -12 -10 -274 4 -473 14 -199 36 -366 69 -507 22 -97
103 -350 150 -469 102 -259 283 -596 419 -780 95 -129 88 -137 -44 -48 -47 32
-121 82 -165 112 -98 66 -239 177 -336 265 -70 63 -74 65 -77 41 -5 -36 42
-220 94 -376 102 -300 258 -566 453 -773 120 -127 352 -320 536 -445 l70 -47
3 -161 2 -162 -32 -5 c-18 -3 -157 -5 -308 -6 -324 -1 -680 -12 -680 -20 0 -3
34 -46 76 -96 42 -49 109 -130 149 -180 40 -49 93 -108 118 -131 25 -22 49
-53 53 -69 7 -29 -15 -209 -44 -354 l-17 -84 -405 2 c-363 2 -406 3 -417 18
-15 20 -16 23 -3 43 7 12 65 15 375 16 201 1 368 4 370 6 7 6 37 152 42 203
11 110 -22 159 -341 503 -109 117 -196 216 -193 218 7 7 496 23 722 24 215 0
406 14 443 33 48 23 49 40 7 91 -20 25 -70 71 -109 100 -166 127 -427 358
-519 461 -162 181 -343 462 -416 647 -82 209 -143 457 -155 643 -4 50 -9 115
-12 145 l-6 54 39 -49 c43 -55 269 -270 348 -332 47 -37 87 -63 98 -63 3 0
-41 91 -97 203 -188 372 -306 751 -357 1142 -14 105 -18 447 -9 781 l5 190 26
-35 c14 -20 92 -135 174 -256 81 -121 191 -271 244 -334 53 -63 115 -138 139
-168 70 -85 73 -76 42 100 -43 244 -65 774 -56 1336 4 222 9 408 12 413 3 5
21 -14 40 -42 19 -28 101 -126 184 -218z m2813 -56 c303 -145 657 -309 777
-361 41 -18 154 -70 250 -115 207 -97 239 -112 390 -180 63 -29 149 -68 190
-87 41 -20 138 -64 215 -98 77 -35 197 -90 268 -123 70 -33 135 -62 145 -64
16 -4 17 -27 10 -324 -6 -302 -19 -486 -53 -724 -8 -58 -22 -159 -30 -225 -19
-145 -83 -430 -130 -580 -19 -60 -46 -150 -61 -199 -54 -183 -171 -466 -193
-466 -22 0 -17 34 20 141 55 155 135 425 142 474 5 34 4 37 -5 15 -6 -14 -28
-34 -50 -45 -22 -11 -43 -25 -45 -32 -8 -20 -33 -16 -28 5 3 9 -2 2 -10 -16
-9 -18 -13 -37 -10 -43 4 -5 2 -9 -3 -9 -5 0 -26 -46 -47 -102 -72 -193 -225
-491 -360 -698 -120 -185 -237 -348 -253 -351 -29 -6 -192 -6 -192 0 0 5 21
32 48 62 160 184 310 416 437 674 103 212 131 280 205 510 147 455 210 868
210 1382 l0 241 43 33 c44 35 79 70 74 75 -1 2 -43 19 -92 37 -50 19 -160 65
-245 102 -85 37 -192 83 -238 102 -45 19 -160 73 -255 120 -150 74 -588 273
-601 273 -5 0 -281 125 -436 197 -47 22 -112 52 -145 67 l-60 26 -95 -39
c-107 -43 -319 -137 -490 -216 -63 -29 -158 -71 -210 -93 -52 -22 -151 -67
-220 -100 -69 -32 -136 -63 -150 -67 -14 -4 -113 -50 -220 -102 -233 -113
-478 -225 -612 -279 l-98 -39 0 -183 c0 -150 3 -186 15 -198 13 -14 15 -14 15
1 0 11 5 15 14 12 9 -4 17 4 21 21 7 25 8 26 15 7 8 -18 10 -16 14 14 0 5 4
13 9 17 4 4 8 32 9 63 1 31 5 -56 9 -194 12 -427 31 -613 90 -880 34 -155 120
-465 145 -523 9 -20 29 -75 46 -122 61 -175 202 -451 332 -657 25 -39 46 -75
46 -81 0 -5 13 -25 30 -43 16 -19 35 -49 42 -66 7 -18 19 -33 27 -33 8 0 12
-2 10 -5 -3 -2 19 -30 48 -62 29 -31 52 -57 50 -59 -8 -7 -172 16 -175 25 -2
6 -37 59 -78 117 -41 58 -74 108 -74 111 0 5 -63 96 -82 117 -5 6 -36 52 -69
101 -32 50 -59 83 -59 74 0 -13 -10 -16 -49 -14 -56 3 -75 11 -65 27 4 6 2 8
-4 4 -5 -3 -13 0 -15 6 -4 9 -6 10 -6 1 -1 -6 4 -15 9 -18 5 -3 10 -11 10 -16
0 -23 -24 7 -46 57 -13 30 -26 54 -29 54 -6 0 10 -40 41 -103 14 -29 22 -36
38 -32 18 5 19 5 4 -5 -9 -6 -15 -17 -12 -25 4 -8 10 -13 14 -10 5 3 12 0 16
-6 4 -8 3 -9 -4 -5 -7 4 -12 1 -12 -9 0 -10 5 -13 12 -9 7 4 8 3 4 -4 -7 -11
135 -279 201 -378 38 -58 39 -60 9 -66 -15 -2 -39 27 -108 127 -239 349 -414
719 -544 1150 -77 256 -136 603 -170 1005 -17 198 -31 782 -20 852 l7 46 237
117 c318 158 733 351 1152 535 284 125 708 317 890 404 41 19 78 35 83 36 4 0
58 -24 120 -54z m2570 -347 c10 -120 -1 -227 -24 -234 -9 -3 -46 -31 -80 -62
-34 -30 -78 -62 -97 -70 -31 -13 -37 -12 -70 7 -21 11 -58 30 -84 43 -26 12
-47 24 -47 27 0 3 59 57 131 120 72 63 158 145 192 182 33 37 64 68 67 68 3 0
9 -37 12 -81z m-5113 -199 l100 -95 -71 -42 c-74 -44 -113 -52 -152 -32 -35
19 -89 68 -124 113 l-32 41 -1 145 0 145 90 -90 c49 -50 135 -133 190 -185z
m2515 -61 c50 -25 108 -52 130 -59 22 -7 67 -26 100 -43 33 -17 113 -53 178
-82 94 -41 115 -54 104 -63 -8 -7 -16 -9 -19 -6 -3 3 -32 -25 -64 -62 -33 -37
-82 -92 -110 -123 l-51 -55 -109 114 c-60 62 -141 147 -180 188 l-70 74 -879
-874 c-656 -653 -877 -879 -872 -891 3 -9 2 -19 -3 -22 -5 -3 -12 4 -14 17 -9
43 -26 204 -26 243 0 21 -7 46 -16 56 -15 17 -15 21 0 46 10 16 311 321 670
678 359 358 669 671 690 696 20 26 51 52 69 59 28 11 118 49 312 132 33 15 62
25 65 25 3 -1 46 -23 95 -48z m-825 -279 c-6 -11 -63 -73 -128 -138 -64 -64
-147 -149 -183 -187 -72 -76 -450 -442 -531 -515 -89 -81 -193 -182 -178 -174
10 5 9 0 -4 -14 -11 -12 -24 -22 -30 -22 -6 0 -4 4 4 10 8 5 12 11 9 14 -2 3
-11 1 -19 -4 -10 -6 -11 -12 -2 -22 8 -11 7 -16 -8 -25 -17 -11 -19 -6 -25 90
-3 56 -5 185 -3 286 2 151 6 185 18 192 8 5 58 29 110 53 52 25 129 64 170 87
79 43 348 172 590 283 80 37 161 75 180 86 43 24 43 24 30 0z m1509 -24 c6 -7
61 -35 122 -61 60 -26 112 -51 114 -55 4 -7 -78 -90 -150 -151 -41 -35 -145
-147 -120 -128 11 7 36 29 55 46 43 40 58 44 21 6 -44 -46 -67 -63 -89 -68
-11 -2 -39 -16 -62 -31 l-42 -28 -76 81 c-43 44 -84 83 -91 85 -12 3 -11 11 7
40 28 45 267 278 286 278 7 0 19 -6 25 -14z m-649 -146 c68 -74 188 -202 267
-283 79 -81 143 -156 143 -165 0 -12 -9 -18 -25 -20 -14 -1 -38 -8 -53 -16
-29 -15 -81 -66 -67 -66 4 0 -10 -13 -31 -29 -41 -30 -240 -229 -296 -296 -18
-22 -125 -128 -238 -235 -112 -107 -333 -323 -490 -480 -158 -157 -320 -317
-361 -356 -41 -39 -149 -149 -242 -244 -92 -95 -169 -171 -170 -169 -4 4 -29
58 -71 154 -15 33 -34 67 -42 77 -9 9 -14 22 -13 27 4 12 1107 1130 1460 1481
l207 206 -50 52 c-27 29 -58 54 -68 55 -18 2 -145 -111 -135 -121 3 -3 23 12
45 33 22 22 40 34 40 28 0 -12 -49 -63 -61 -63 -5 0 -9 -6 -9 -13 0 -14 -39
-51 -47 -44 -2 3 5 15 16 26 11 11 17 23 12 25 -12 8 -571 -548 -571 -567 0
-4 6 -6 12 -4 15 2 38 23 38 32 0 11 68 74 74 69 3 -2 4 -1 2 2 -4 6 22 34
117 122 79 75 52 29 -40 -68 -124 -130 -193 -187 -203 -170 -6 10 -131 -109
-458 -439 -248 -249 -452 -449 -455 -444 -2 4 -21 62 -42 128 -20 66 -41 125
-47 132 -5 7 -6 18 -1 27 4 8 112 120 238 248 127 129 290 297 363 373 73 77
285 293 470 480 185 187 406 411 490 498 85 87 157 157 162 155 4 -2 63 -64
130 -138z m1041 -46 c18 -22 80 -52 157 -76 37 -11 69 -22 70 -23 6 -5 -56
-93 -71 -101 -6 -4 -3 3 8 16 l20 24 -25 -16 c-14 -8 -25 -23 -25 -31 0 -9 -6
-22 -14 -29 -10 -10 -12 -10 -7 0 4 6 2 12 -4 12 -11 0 -671 -651 -1420 -1400
-217 -218 -520 -519 -673 -670 -198 -195 -277 -280 -274 -292 6 -21 -20 -44
-44 -40 -9 2 -20 -2 -24 -7 -3 -7 0 -8 10 -5 11 5 14 2 9 -10 -4 -11 -13 -15
-28 -11 -14 4 -17 3 -8 -3 9 -6 6 -14 -13 -32 -14 -13 -27 -22 -28 -19 -2 2
-22 35 -43 72 -65 114 -76 132 -88 139 -8 5 -7 14 4 32 30 49 590 605 1415
1406 211 205 314 308 734 738 183 188 337 342 341 342 4 0 13 -7 21 -16z m509
-243 c142 -53 134 -48 118 -73 -8 -12 -24 -22 -36 -23 -22 -2 -767 -744 -979
-975 -233 -254 -499 -519 -671 -670 -28 -25 -52 -51 -52 -58 0 -6 -6 -11 -12
-10 -7 2 -14 -9 -16 -24 -3 -21 -16 -33 -70 -61 -37 -19 -88 -38 -114 -42 -45
-7 -68 -25 -32 -25 9 0 53 -39 99 -86 l84 -85 43 48 c52 58 199 212 592 618
165 171 336 348 381 395 44 47 217 227 385 400 168 173 333 344 367 380 l62
65 -5 -100 c-3 -55 -9 -154 -12 -220 l-7 -120 -30 3 c-16 2 -40 13 -53 25 -20
19 -23 28 -17 67 4 25 11 50 16 56 5 7 9 16 8 20 -4 23 2 45 11 39 5 -3 7 0 4
8 -2 7 0 26 6 42 l11 29 -22 -19 c-11 -11 -27 -31 -34 -45 -14 -27 -46 -259
-48 -352 -1 -32 -6 -58 -10 -58 -5 0 -6 -4 -3 -9 3 -5 -1 -14 -9 -21 -8 -7
-15 -9 -15 -5 0 5 -9 0 -20 -10 -11 -10 -18 -21 -15 -25 4 -7 -157 -178 -190
-201 -26 -18 7 19 103 116 39 40 72 75 72 79 0 14 -246 -226 -399 -390 -41
-43 -160 -167 -265 -274 -105 -108 -238 -247 -296 -310 -182 -198 -272 -290
-281 -284 -5 3 -9 -2 -9 -11 0 -9 -4 -14 -9 -11 -5 3 -11 -4 -14 -15 -3 -12
-10 -18 -16 -15 -6 4 -18 -6 -28 -21 -10 -15 -26 -36 -35 -45 -10 -10 -18 -22
-18 -26 0 -5 -13 -7 -30 -4 -23 3 -30 0 -30 -13 0 -11 -5 -15 -15 -11 -8 3
-19 -3 -25 -12 -8 -14 -11 -14 -19 -3 -7 11 -10 11 -17 0 -6 -10 -11 -6 -19
15 -10 25 -13 14 -19 -85 -4 -63 -10 -117 -15 -122 -5 -5 -19 8 -31 28 -19 31
-20 39 -9 46 8 5 11 9 7 9 -3 0 -14 3 -22 6 -12 5 -15 2 -9 -12 6 -16 5 -16
-14 2 -11 10 -18 22 -16 27 2 4 -3 7 -11 7 -16 0 -20 10 -17 42 1 9 -3 20 -10
24 -7 4 -9 3 -5 -4 3 -6 2 -13 -3 -17 -6 -3 -8 4 -6 16 5 25 -14 59 -35 60
-10 0 -11 2 -2 6 6 2 9 9 6 14 -3 6 -12 5 -21 -3 -15 -12 -15 -11 -3 9 15 24
3 40 -145 189 -90 91 -118 109 -142 94 -16 -10 -16 -11 5 -7 12 3 22 1 22 -3
0 -5 12 -23 26 -40 20 -24 24 -34 15 -43 -9 -9 -26 3 -72 50 l-62 61 574 568
c845 839 981 975 1125 1129 72 77 189 197 259 268 l127 127 26 -28 c16 -17 61
-41 112 -61z m-426 -33 c-35 -42 -254 -260 -254 -253 0 8 261 275 268 275 3 0
-3 -10 -14 -22z m-587 -14 c-3 -3 -12 -4 -19 -1 -8 3 -5 6 6 6 11 1 17 -2 13
-5z m2586 -43 c8 -32 -3 -219 -19 -331 -16 -110 -79 -366 -119 -485 -24 -73
-81 -202 -128 -292 -25 -48 -36 -58 -59 -54 -5 0 -8 -6 -8 -15 0 -8 -4 -13
-10 -9 -5 3 -16 -8 -25 -25 -12 -23 -13 -30 -3 -31 7 0 5 -3 -4 -7 -10 -4 -60
-75 -112 -157 -111 -177 -135 -209 -216 -294 -33 -35 -89 -100 -122 -145 -52
-69 -188 -235 -223 -272 -5 -6 -30 -37 -55 -67 -25 -31 -50 -56 -57 -57 -6 0
-14 -6 -17 -12 -4 -7 -4 2 -1 20 4 31 64 116 225 322 154 197 376 635 492 970
50 145 118 421 125 505 6 78 7 81 49 120 38 36 229 271 257 316 15 24 23 24
30 0z m-6440 -103 c83 -104 174 -207 242 -271 41 -40 45 -48 45 -90 0 -58 40
-266 79 -407 42 -156 163 -477 236 -625 96 -197 272 -460 443 -663 25 -29 42
-56 38 -59 -7 -8 -154 140 -239 240 -27 32 -53 55 -58 52 -5 -4 -6 1 -3 9 3 9
-3 19 -16 26 -11 6 -18 15 -16 19 3 4 -13 26 -34 49 -22 23 -40 45 -40 49 0 5
-16 26 -35 48 -20 22 -34 33 -33 25 3 -18 -32 -15 -45 3 -6 9 -10 8 -14 -2 -3
-8 -8 -9 -12 -3 -3 5 -15 12 -26 14 -26 4 -44 28 -37 47 4 10 1 13 -11 8 -12
-4 -14 -2 -10 10 4 11 2 14 -5 9 -7 -4 -12 -3 -12 3 0 5 5 13 10 16 6 3 10 11
10 17 0 7 -4 7 -13 -1 -11 -8 -13 -4 -9 20 6 40 -17 109 -36 109 -9 0 -12 -6
-8 -16 3 -8 2 -12 -4 -9 -6 3 -10 1 -10 -5 0 -6 6 -13 14 -16 19 -7 28 -31 11
-31 -38 0 -270 479 -345 712 -48 150 -97 357 -114 480 -17 130 -31 325 -22
325 3 0 39 -42 79 -92z m1140 -33 c-3 -9 -8 -14 -10 -11 -3 3 -2 9 2 15 9 16
15 13 8 -4z m1833 -10 c-11 -8 -16 -15 -12 -15 12 0 -14 -29 -36 -41 -18 -9
-18 -8 -8 10 6 12 18 21 27 21 9 0 13 3 10 7 -9 8 12 33 27 33 6 0 2 -7 -8
-15z m662 -37 c-24 -24 -45 -42 -47 -41 -2 2 -11 -3 -20 -9 -9 -8 -8 -3 4 12
11 14 28 31 38 38 9 7 14 18 11 24 -4 7 -2 8 4 4 7 -4 12 -2 12 3 0 6 9 11 20
11 17 0 13 -7 -22 -42z m1152 -8 c0 -5 -5 -10 -11 -10 -5 0 -7 5 -4 10 3 6 8
10 11 10 2 0 4 -4 4 -10z m-1891 -46 c-6 -7 -15 -11 -21 -8 -5 3 -4 12 3 20 6
7 15 11 21 8 5 -3 4 -12 -3 -20z m1851 12 c0 -2 -8 -10 -17 -17 -16 -13 -17
-12 -4 4 13 16 21 21 21 13z m-590 -9 c0 -2 -15 -16 -32 -33 l-33 -29 29 33
c28 30 36 37 36 29z m505 -87 c-33 -33 -64 -60 -70 -60 -5 0 17 27 50 60 33
33 64 60 70 60 5 0 -17 -27 -50 -60z m-1835 10 c-12 -17 -26 -27 -32 -24 -7 5
0 16 18 31 38 30 40 29 14 -7z m-40 -40 c0 -5 -5 -10 -11 -10 -5 0 -7 5 -4 10
3 6 8 10 11 10 2 0 4 -4 4 -10z m659 -7 c-26 -34 -94 -106 -143 -152 -27 -25
-62 -58 -78 -73 -15 -15 -28 -23 -28 -17 0 9 250 259 259 259 2 0 -3 -8 -10
-17z m601 13 c0 -2 -8 -10 -17 -17 -16 -13 -17 -12 -4 4 13 16 21 21 21 13z
m-70 -70 c0 -2 -8 -10 -17 -17 -16 -13 -17 -12 -4 4 13 16 21 21 21 13z m-90
-89 c0 -2 -10 -12 -22 -23 l-23 -19 19 23 c18 21 26 27 26 19z m540 -52 c-7
-8 -18 -15 -24 -15 -6 0 -2 7 8 15 25 19 32 19 16 0z m-182 -190 c-92 -91
-169 -165 -172 -165 -23 0 11 43 122 150 145 142 189 180 205 180 7 0 -63 -74
-155 -165z m-529 69 c-19 -20 -43 -40 -54 -46 -11 -6 3 12 30 39 57 55 76 61
24 7z m-590 -1 c-52 -57 -119 -123 -119 -117 0 3 -9 -4 -20 -17 -10 -13 -19
-20 -20 -16 0 9 168 177 178 177 3 0 -5 -12 -19 -27z m-1279 13 c0 -2 -8 -10
-17 -17 -16 -13 -17 -12 -4 4 13 16 21 21 21 13z m599 -23 c-100 -110 -303
-312 -308 -307 -3 4 0 9 7 11 6 3 12 11 12 19 0 8 4 14 8 14 5 0 14 11 21 24
7 13 24 30 37 37 13 7 22 14 20 16 -3 4 85 91 132 132 13 11 22 22 20 25 -3 5
61 56 71 56 2 0 -6 -12 -20 -27z m2418 -48 c0 -8 -4 -12 -9 -9 -5 3 -6 10 -3
15 9 13 12 11 12 -6z m-3093 -10 c-4 -8 -11 -15 -16 -15 -6 0 -5 6 2 15 7 8
14 15 16 15 2 0 1 -7 -2 -15z m1796 -70 c-73 -74 -80 -80 -80 -70 0 6 143 144
150 145 2 0 -29 -34 -70 -75z m1235 -4 c-3 -6 -11 -11 -17 -11 -6 0 -6 6 2 15
14 17 26 13 15 -4z m-4067 -46 c0 -16 -2 -15 -8 5 -11 34 -11 60 0 35 5 -11 8
-29 8 -40z m962 45 c0 -5 -10 -15 -22 -21 -23 -12 -23 -12 -4 10 21 23 26 26
26 11z m3265 -92 c-13 -46 -28 -110 -35 -143 -21 -106 -71 -259 -98 -295 -14
-19 -109 -120 -211 -224 -102 -105 -283 -289 -401 -410 -118 -120 -258 -263
-311 -317 -53 -53 -106 -110 -119 -125 -13 -16 -20 -21 -17 -12 3 10 2 20 -3
23 -6 4 -10 -3 -10 -14 0 -36 -10 -52 -25 -38 -7 7 -11 15 -8 20 2 4 -1 7 -6
7 -14 0 -14 -6 -1 -31 11 -20 -3 -28 -15 -8 -4 6 -13 8 -20 5 -8 -3 -16 3 -18
12 -3 12 -5 11 -6 -5 0 -12 -6 -25 -12 -29 -9 -5 -10 7 -5 47 4 38 3 49 -4 39
-5 -8 -10 -26 -10 -40 -1 -24 -1 -24 -12 -5 -17 29 -38 48 -45 41 -3 -3 0 -12
6 -20 10 -11 9 -14 -1 -12 -21 3 -38 16 -38 29 0 8 3 7 9 -2 7 -11 10 -9 16 8
3 11 14 21 23 22 12 0 13 2 4 6 -10 4 -3 16 23 40 20 19 34 38 30 41 -3 4 -45
-34 -93 -83 -218 -228 -279 -288 -307 -302 -27 -15 -26 -11 20 43 27 32 106
120 175 194 69 75 231 250 361 390 130 140 410 435 624 655 213 220 424 439
469 488 44 48 84 87 87 87 4 0 -4 -37 -16 -82z m-3335 18 c0 -2 -7 -9 -15 -16
-13 -11 -14 -10 -9 4 5 14 24 23 24 12z m1275 -6 c-3 -5 -12 -10 -18 -10 -7 0
-6 4 3 10 19 12 23 12 15 0z m430 -149 c-82 -81 -152 -146 -155 -143 -6 5 287
292 298 292 4 0 -60 -67 -143 -149z m505 -121 c-6 -11 -15 -20 -20 -20 -6 0
-2 9 7 20 10 11 19 20 21 20 1 0 -2 -9 -8 -20z m-670 -34 c0 -8 -318 -326
-326 -326 -9 0 -23 -15 164 173 153 153 162 162 162 153z m550 -90 c-25 -24
-83 -83 -129 -130 -47 -47 -88 -86 -92 -86 -4 0 50 59 120 130 70 72 131 130
136 130 5 0 -11 -20 -35 -44z m1120 -95 c-5 -11 -15 -23 -21 -27 -6 -3 -3 5 6
20 20 30 30 35 15 7z m-640 -67 c0 -1 -11 -9 -25 -18 -25 -16 -25 -16 -14 2 9
15 39 27 39 16z m-2520 -8 c0 -10 -86 -86 -97 -86 -20 0 -15 14 12 40 14 13
25 20 25 15 0 -5 9 1 20 13 19 20 40 29 40 18z m2449 -59 c-2 -1 -13 -9 -24
-17 -19 -14 -19 -14 -6 3 7 9 18 17 24 17 6 0 8 -1 6 -3z m-3709 -39 c0 -19
-2 -20 -10 -8 -13 19 -13 30 0 30 6 0 10 -10 10 -22z m2410 19 c0 -2 -12 -14
-27 -28 l-28 -24 24 28 c23 25 31 32 31 24z m-80 -81 c0 -2 -8 -10 -17 -17
-16 -13 -17 -12 -4 4 13 16 21 21 21 13z m-40 -39 c0 -2 -17 -19 -37 -38 l-38
-34 34 38 c33 34 41 42 41 34z m-610 -31 c0 -3 -4 -8 -10 -11 -5 -3 -10 -1
-10 4 0 6 5 11 10 11 6 0 10 -2 10 -4z m2584 -130 c-34 -68 -54 -98 -70 -102
-17 -4 -21 -12 -18 -40 1 -19 -2 -34 -8 -34 -6 0 -8 11 -6 25 3 14 1 28 -4 31
-4 3 -5 10 -2 16 22 35 -84 -67 -427 -409 -325 -326 -380 -385 -369 -398 11
-13 6 -15 -40 -15 l-52 0 321 328 c289 294 711 703 719 697 2 -2 -18 -46 -44
-99z m1631 -84 c-55 -113 -125 -233 -151 -260 -14 -14 -35 -13 -46 3 -5 6 -8
6 -8 -1 0 -27 -280 -277 -394 -353 -84 -56 -205 -125 -298 -170 -56 -28 -73
-32 -110 -27 -40 6 -42 6 -24 -9 11 -8 15 -15 10 -15 -6 0 -15 5 -21 11 -8 8
-34 3 -92 -15 -86 -27 -131 -33 -131 -16 0 5 19 19 43 31 58 29 216 142 372
266 72 57 177 141 235 187 58 46 175 135 260 198 85 64 184 139 220 167 134
106 185 141 189 130 2 -6 -22 -63 -54 -127z m-6206 49 c36 -26 118 -83 181
-125 312 -210 416 -290 505 -391 65 -74 178 -168 285 -236 93 -60 175 -118
204 -144 l21 -20 -38 -3 c-24 -2 -47 3 -65 16 -40 28 -140 63 -147 52 -10 -17
-37 -11 -104 20 -151 72 -383 240 -565 409 -27 25 -46 38 -43 29 9 -26 -2 -22
-13 5 -8 20 -9 20 -10 2 0 -11 -7 -28 -15 -39 -13 -17 -14 -16 -23 15 -4 19
-15 34 -22 34 -8 0 -19 10 -26 22 -6 13 -19 31 -28 42 -22 24 -176 328 -176
347 0 21 7 18 79 -35z m2463 -182 c-8 -12 -9 -18 -4 -15 5 3 44 -28 85 -70
l76 -76 -180 -179 c-99 -99 -184 -177 -189 -174 -6 4 -7 -1 -3 -11 4 -12 3
-15 -5 -10 -7 4 -12 2 -12 -3 0 -6 -5 -11 -11 -11 -5 0 -8 4 -4 9 3 5 1 12 -5
16 -5 3 -10 -3 -10 -13 0 -11 -7 -22 -15 -26 -17 -6 -21 9 -5 19 6 3 10 11 10
16 0 6 -7 3 -16 -6 -15 -14 -19 -14 -52 5 -19 12 -41 19 -48 16 -18 -7 -18 -1
2 30 9 13 14 27 11 30 -3 3 -8 -4 -12 -15 -5 -18 -8 -19 -21 -7 -20 20 -18 27
21 66 19 19 35 38 35 42 0 5 -26 -16 -57 -47 -55 -52 -88 -73 -100 -62 -9 10
20 43 203 234 205 213 291 290 308 273 7 -7 7 -16 -2 -31z m1998 -9 c0 -5 -2
-10 -4 -10 -3 0 -8 5 -11 10 -3 6 -1 10 4 10 6 0 11 -4 11 -10z m-2300 -50 c0
-5 -5 -10 -11 -10 -5 0 -7 5 -4 10 3 6 8 10 11 10 2 0 4 -4 4 -10z m-1157
-134 c4 -10 0 -12 -14 -9 -10 3 -16 9 -13 14 8 13 21 11 27 -5z m1722 -152
c-73 -63 -331 -309 -344 -327 -11 -17 -8 -18 56 -17 165 4 283 -1 283 -10 0
-6 -69 -9 -182 -9 -104 0 -198 -4 -218 -10 -19 -6 -36 -11 -36 -11 -1 0 53 56
120 124 68 68 147 152 177 186 30 34 76 80 103 101 45 36 51 38 65 24 15 -15
12 -19 -24 -51z m-695 -128 c0 -3 -4 -8 -10 -11 -5 -3 -10 -1 -10 4 0 6 5 11
10 11 6 0 10 -2 10 -4z m25 -15 c3 -5 1 -12 -5 -16 -5 -3 -10 1 -10 9 0 18 6
21 15 7z m85 -85 c0 -2 -8 -10 -17 -17 -16 -13 -17 -12 -4 4 13 16 21 21 21
13z m20 -20 c0 -2 -8 -10 -17 -17 -16 -13 -17 -12 -4 4 13 16 21 21 21 13z
m913 -63 c4 -7 15 -13 23 -13 13 0 13 -2 1 -14 -17 -17 -352 -32 -362 -16 -4
7 47 10 152 11 95 1 148 4 133 9 -14 4 -20 8 -13 9 7 1 10 11 8 24 l-4 22 19
-24 c13 -15 20 -18 20 -9 0 8 -6 20 -12 28 -10 11 -9 11 7 0 11 -8 24 -21 28
-27z m-393 -8 c0 -8 -4 -15 -10 -15 -5 0 -7 7 -4 15 4 8 8 15 10 15 2 0 4 -7
4 -15z m1915 -65 c-3 -5 -12 -10 -18 -10 -7 0 -6 4 3 10 19 12 23 12 15 0z
m-1780 -184 c28 -12 57 -31 65 -41 13 -16 11 -20 -18 -46 -36 -32 -63 -37 -82
-14 -32 38 -132 22 -163 -27 -60 -92 10 -206 121 -195 78 8 115 67 40 64 -37
-2 -43 1 -46 19 -2 11 1 31 6 45 9 23 12 24 96 21 l86 -3 0 -74 c0 -87 -9
-101 -94 -145 -97 -50 -192 -33 -276 49 -39 38 -50 56 -61 103 -17 78 -2 126
59 190 76 79 172 99 267 54z m-503 -141 c61 -131 118 -262 118 -272 0 -2 -29
-3 -65 -3 -63 0 -65 1 -65 26 0 58 -13 65 -110 63 -52 -1 -94 -6 -99 -13 -5
-6 -12 -25 -15 -43 -7 -30 -9 -31 -69 -35 -34 -2 -63 -3 -65 -2 -5 3 35 98
106 250 38 82 72 157 75 167 6 15 16 17 63 15 l56 -3 70 -150z m832 118 c3
-21 6 -82 6 -136 0 -98 0 -99 31 -128 38 -36 78 -38 116 -5 28 24 28 26 33
163 l5 138 52 3 52 3 -6 -158 c-5 -132 -9 -163 -25 -191 -51 -84 -186 -111
-276 -55 -27 16 -56 46 -69 68 -21 36 -23 53 -23 188 l0 147 49 0 c48 0 48 0
55 -37z m764 -15 l-3 -53 -108 0 -107 0 0 -32 0 -33 60 0 60 0 0 -50 0 -50
-60 0 -60 0 0 -30 0 -30 111 0 112 0 -5 -50 c-3 -28 -7 -53 -10 -55 -2 -3 -76
-2 -164 2 l-159 6 0 206 0 206 145 5 c80 3 155 7 168 8 22 2 23 -1 20 -50z
m657 17 c26 -17 61 -49 79 -73 26 -37 31 -54 34 -116 4 -69 2 -74 -30 -116
-80 -107 -222 -130 -326 -53 -111 83 -131 212 -47 310 76 89 193 108 290 48z
m-2709 -2 c-2 -16 -5 -40 -5 -55 l-1 -28 -105 0 -105 0 0 -30 0 -30 61 0 60 0
-3 -47 -3 -48 -62 -3 c-58 -3 -63 -5 -63 -26 0 -22 4 -23 106 -29 58 -2 107
-7 109 -8 2 -2 1 -25 -2 -51 l-5 -46 -170 1 -169 2 5 25 c3 14 9 109 12 213
l7 187 169 0 169 0 -5 -27z m3150 17 l134 0 0 -50 0 -49 -107 -3 -108 -3 -3
-42 -3 -43 80 0 81 0 0 -51 0 -51 -77 3 -78 4 0 -68 0 -68 -60 3 -60 3 0 205
c-1 113 1 209 3 214 3 4 18 5 34 2 17 -3 91 -6 164 -6z m-3820 -155 l-7 -155
100 0 101 0 0 -49 0 -48 -52 -7 c-29 -3 -104 -6 -166 -6 l-113 0 6 78 c4 42
10 127 16 187 5 61 9 120 9 133 0 20 5 22 56 22 l57 0 -7 -155z m3027 -514
c-11 -121 24 -427 63 -554 4 -13 -13 -3 -50 27 -115 93 -105 91 -409 91 -227
0 -269 -2 -277 -15 -5 -8 -10 -79 -10 -157 l0 -143 213 0 c235 0 230 -1 325
77 l40 33 1 -168 c2 -176 24 -493 37 -527 5 -13 -9 -5 -40 23 -95 87 -191 110
-463 111 l-93 1 0 -208 0 -209 138 -7 c75 -3 196 -13 267 -21 226 -25 240 -22
338 73 45 44 57 52 57 37 2 -107 20 -515 26 -569 l7 -69 -43 7 c-105 17 -560
66 -710 77 -91 6 -279 12 -417 13 -139 0 -253 2 -253 4 0 1 14 27 30 56 17 30
36 69 42 88 13 40 20 1781 7 1815 -4 12 -33 51 -64 87 l-56 66 588 1 c324 0
608 4 633 8 83 15 79 18 73 -48z m-2653 44 c0 -2 -4 -26 -10 -52 -20 -98 -39
-362 -33 -462 7 -116 1 -122 -49 -60 -53 66 -64 69 -271 69 -101 0 -224 -3
-274 -6 l-90 -7 -12 -91 c-6 -50 -18 -138 -25 -196 -8 -58 -17 -112 -20 -120
-6 -13 8 -15 101 -12 145 4 256 18 296 38 17 9 62 46 100 82 37 37 67 64 67
62 0 -3 -9 -37 -20 -75 -41 -140 -60 -310 -60 -527 -1 -154 -3 -198 -12 -183
-54 99 -122 111 -392 72 l-150 -22 -18 -110 c-10 -61 -25 -175 -33 -255 -9
-80 -29 -201 -45 -270 -16 -69 -34 -170 -41 -225 -12 -95 -11 -102 9 -142 12
-23 22 -44 22 -46 0 -2 -19 -7 -42 -10 -46 -7 -194 -62 -318 -120 -188 -87
-219 -100 -279 -123 -35 -13 -66 -22 -68 -20 -3 2 12 26 31 54 20 27 47 78 60
114 38 100 139 596 201 988 14 85 36 220 50 300 41 240 93 570 105 660 6 47
22 154 36 238 13 84 24 172 24 196 0 54 -39 116 -123 191 l-60 55 474 1 c392
1 729 8 847 17 12 1 22 0 22 -3z m683 -5 c5 0 -1 -13 -13 -29 -27 -39 -36 -99
-50 -321 -6 -102 -15 -243 -20 -315 -6 -71 -14 -229 -20 -350 -10 -220 -35
-584 -45 -639 l-5 -29 57 6 c32 4 168 14 302 22 160 11 254 21 271 30 15 8 59
48 97 89 l70 74 -1 -327 -1 -328 -185 -7 c-369 -13 -888 -70 -1193 -132 -43
-9 -80 -14 -82 -12 -2 2 14 33 37 68 23 36 49 83 59 105 22 49 44 210 64 460
16 207 30 355 45 480 5 44 16 177 25 295 8 118 25 328 37 466 l22 250 -31 45
c-17 24 -43 55 -57 68 -14 14 -26 27 -26 30 0 4 567 5 643 1z m2380 0 l268 0
-7 -35 c-5 -31 3 -51 71 -173 107 -189 228 -393 231 -390 1 2 19 41 40 88 20
47 74 163 120 259 46 96 84 180 84 188 0 7 -9 22 -20 33 -11 11 -20 21 -20 23
0 4 653 -3 657 -7 2 -2 -19 -30 -47 -62 -70 -80 -152 -229 -226 -409 -34 -82
-93 -215 -132 -295 -38 -80 -86 -187 -106 -239 -43 -110 -48 -85 60 -301 134
-268 241 -494 294 -620 78 -188 177 -433 217 -540 19 -52 60 -153 90 -223 30
-70 54 -130 52 -132 -2 -2 -92 40 -199 92 -107 53 -251 119 -320 148 l-125 51
-7 44 c-6 43 -47 140 -172 405 -64 137 -165 336 -177 349 -9 10 -30 -30 -114
-219 -35 -80 -75 -162 -90 -182 -31 -47 -31 -67 1 -137 27 -58 25 -82 -4 -67
-28 14 -266 68 -447 101 -93 17 -176 33 -183 35 -9 3 0 20 27 52 32 39 201
356 201 378 0 4 40 95 89 203 49 109 113 255 141 326 l52 129 -21 46 c-13 25
-60 109 -105 186 -95 159 -270 473 -311 555 -49 98 -138 234 -187 286 -26 28
-48 54 -48 59 0 4 24 5 53 1 28 -3 173 -6 320 -6z m2127 -725 c16 -20 4 -52
-23 -57 -12 -2 -176 -2 -364 0 -246 3 -343 8 -343 16 1 47 50 53 426 55 244 1
294 -1 304 -14z m-6614 -238 l-11 -40 -433 -5 -432 -4 -9 23 c-4 13 -6 29 -4
35 3 8 132 13 426 19 334 5 426 10 441 21 28 19 37 1 22 -49z m6701 11 c18
-15 16 -45 -3 -52 -9 -3 -202 -6 -429 -6 l-413 0 -6 26 c-8 29 -1 40 28 46 50
9 811 -4 823 -14z m-6773 -194 c45 -7 47 -8 44 -38 l-3 -31 -270 -7 c-148 -5
-319 -7 -380 -5 l-110 2 -3 26 c-2 14 3 31 11 37 9 8 95 13 268 15 140 1 286
3 325 5 39 1 92 -1 118 -4z m6664 -22 c6 -9 12 -24 12 -34 0 -16 -11 -18 -97
-20 -271 -6 -686 13 -722 32 -11 6 -9 10 8 19 45 25 115 28 446 24 293 -5 342
-8 353 -21z m-6628 -155 c0 -29 -91 -521 -116 -625 -8 -37 -35 -162 -59 -277
-65 -315 -97 -437 -172 -670 -20 -60 -38 -104 -40 -98 -3 9 -14 11 -30 7 -17
-5 -24 -3 -19 4 3 6 1 12 -6 14 -14 5 13 135 57 278 13 42 30 107 38 145 9 39
24 106 36 150 32 126 120 544 175 835 24 125 55 216 80 235 19 15 56 16 56 2z
m921 -1005 c24 -16 64 -50 87 -76 24 -26 76 -69 115 -94 40 -26 89 -60 109
-75 42 -33 57 -32 238 8 161 36 326 63 566 90 120 14 224 25 231 25 15 0 17
-48 4 -68 -9 -15 -148 -41 -391 -72 -178 -22 -287 -43 -445 -83 -121 -30 -239
-57 -253 -57 -6 0 -25 29 -44 65 -18 36 -36 65 -41 65 -14 0 -136 121 -143
142 -14 45 -34 8 -64 -119 -11 -48 -26 -128 -33 -178 l-13 -90 -95 -31 c-51
-17 -130 -48 -174 -68 -74 -35 -174 -79 -335 -146 -36 -15 -131 -60 -212 -99
-82 -40 -154 -74 -160 -75 -7 -1 -23 -8 -35 -14 -19 -11 -23 -10 -23 2 0 10
-6 13 -17 10 -17 -5 -17 -5 0 9 10 8 23 31 28 51 6 20 16 36 24 36 8 0 15 4
15 8 0 13 116 67 495 229 83 35 177 77 210 93 33 15 83 36 112 45 29 9 57 23
63 30 5 6 19 57 31 111 27 135 38 173 56 213 11 24 14 49 9 88 -6 51 -5 53 17
53 13 0 43 -13 68 -28z m1877 -74 c-2 -7 -38 -30 -81 -50 -58 -29 -77 -42 -77
-58 0 -11 4 -20 9 -20 5 0 51 16 102 36 93 36 95 36 221 32 l126 -4 86 -44
c47 -24 88 -41 92 -37 14 14 -28 56 -93 92 -83 46 -81 44 -63 56 20 14 195 2
229 -15 61 -32 70 -53 102 -232 16 -93 32 -187 35 -209 3 -22 12 -72 20 -112
8 -40 14 -95 14 -122 l0 -51 -57 -28 c-75 -38 -179 -78 -221 -86 -24 -4 -37
-1 -52 14 -32 32 -24 47 45 80 71 34 125 81 125 110 0 32 -19 33 -56 1 -46
-41 -132 -84 -223 -111 -134 -41 -236 -20 -420 84 -53 31 -100 56 -104 56 -4
0 -7 -11 -7 -24 0 -36 78 -100 161 -132 64 -25 70 -30 67 -53 -3 -25 -6 -26
-58 -25 -64 2 -213 50 -271 88 l-39 26 0 83 c1 56 5 88 15 101 8 11 15 36 15
56 0 20 11 97 24 171 14 74 28 160 31 191 6 43 14 64 34 84 54 55 79 64 179
64 70 0 93 -3 90 -12z m1107 -68 c270 -35 441 -69 848 -169 l119 -29 46 35
c26 20 74 61 107 93 33 31 74 67 92 79 l32 22 16 -36 c23 -56 33 -101 45 -210
7 -55 13 -101 13 -101 1 -1 31 -11 67 -22 79 -25 234 -90 395 -167 184 -88
362 -165 380 -165 8 0 45 16 80 35 35 20 82 42 104 50 37 13 40 12 38 -5 -1
-11 -6 -16 -16 -12 -9 4 -12 1 -7 -7 5 -8 3 -11 -5 -10 -16 3 -101 -36 -94
-42 2 -3 -5 -11 -17 -18 -11 -7 -17 -8 -13 -2 4 8 -1 8 -19 0 -14 -7 -22 -17
-19 -25 3 -8 0 -14 -6 -14 -6 0 -11 -7 -11 -15 0 -8 -6 -15 -12 -15 -7 0 -4
-7 7 -16 19 -15 19 -15 -10 -8 -28 7 -115 46 -160 72 -11 6 -49 23 -85 38 -68
27 -89 36 -230 102 -69 31 -330 141 -436 182 -19 7 -22 19 -28 110 -3 56 -10
109 -14 117 -7 11 -30 -6 -103 -76 -52 -50 -102 -90 -111 -91 -9 0 -54 14
-100 31 -222 81 -531 149 -893 194 -110 14 -206 27 -212 30 -8 3 -13 23 -13
51 l0 46 33 -6 c17 -3 104 -15 192 -26z m-4414 -889 c7 11 9 11 9 1 0 -7 4
-11 9 -8 5 3 15 -2 22 -11 10 -12 10 -14 2 -9 -7 4 -13 3 -13 -2 0 -10 -64
-42 -85 -42 -20 0 -19 5 7 51 18 33 23 37 31 23 8 -13 11 -14 18 -3z m7049
-42 c0 -15 -4 -19 -16 -15 -9 3 -20 6 -25 6 -16 0 -10 18 9 23 30 8 32 7 32
-14z"/>
<path d="M7391 7980 c-7 -16 -5 -58 2 -51 5 5 7 19 4 32 -2 13 -5 22 -6 19z"/>
<path d="M3230 5565 c0 -5 5 -17 10 -25 5 -8 10 -10 10 -5 0 6 -5 17 -10 25
-5 8 -10 11 -10 5z"/>
<path d="M3766 5103 c-6 -14 -5 -15 5 -6 7 7 10 15 7 18 -3 3 -9 -2 -12 -12z"/>
<path d="M3766 5048 c3 -5 10 -6 15 -3 13 9 11 12 -6 12 -8 0 -12 -4 -9 -9z"/>
<path d="M5038 5328 c-4 -37 -3 -44 7 -50 23 -17 36 -8 33 24 -3 33 -36 54
-40 26z"/>
<path d="M2385 6001 c-3 -5 -2 -12 3 -15 5 -3 9 1 9 9 0 17 -3 19 -12 6z"/>
<path d="M5574 5388 c-16 -18 -22 -27 -13 -20 9 6 20 8 24 4 5 -4 5 -2 1 5 -3
6 4 19 16 27 12 9 18 16 12 16 -6 0 -23 -14 -40 -32z"/>
<path d="M5597 5233 c-4 -3 -7 -13 -7 -22 1 -13 3 -13 11 2 11 19 8 33 -4 20z"/>
<path d="M2193 5395 c-3 -9 -3 -18 -1 -21 3 -3 8 4 11 16 6 23 -1 27 -10 5z"/>
<path d="M4178 4548 c-8 -13 -20 -38 -26 -55 l-11 -33 54 0 54 0 -21 48 c-27
63 -32 67 -50 40z"/>
<path d="M6404 4595 c-60 -31 -81 -104 -45 -159 26 -39 57 -55 107 -56 142 -1
145 205 4 226 -21 3 -47 -2 -66 -11z"/>
<path d="M8116 1377 c3 -10 9 -15 12 -12 3 3 0 11 -7 18 -10 9 -11 8 -5 -6z"/>
<path d="M4907 1406 c-81 -22 -125 -80 -147 -191 -6 -33 -10 -78 -8 -100 3
-37 7 -42 54 -67 28 -15 76 -34 108 -42 51 -14 62 -14 104 0 36 13 53 14 83 5
80 -24 182 -5 266 51 l35 23 -6 65 c-11 138 -51 213 -128 245 -57 23 -291 31
-361 11z m103 -184 c23 -28 25 -59 8 -97 -22 -48 -91 -46 -121 4 -21 36 -22
60 -1 89 32 46 80 48 114 4z m235 16 c15 -14 28 -38 32 -60 4 -30 1 -41 -20
-62 -15 -14 -37 -26 -51 -26 -60 0 -88 90 -45 144 25 32 50 33 84 4z"/>
</g>
</svg>
